<?xml version="1.0" standalone="no"?>
<!DOCTYPE svg PUBLIC "-//W3C//DTD SVG 20010904//EN"
 "http://www.w3.org/TR/2001/REC-SVG-20010904/DTD/svg10.dtd">
<svg version="1.0" xmlns="http://www.w3.org/2000/svg"
 width="16.000000pt" height="16.000000pt" viewBox="0 0 16.000000 16.000000"
 preserveAspectRatio="xMidYMid meet">
<metadata>
Created by potrace 1.11, written by Peter Selinger 2001-2013
</metadata>
<g transform="translate(0.000000,16.000000) scale(0.003125,-0.003125)"
fill="#000000" stroke="none">
<path d="M0 2560 l0 -2560 2560 0 2560 0 0 2560 0 2560 -2560 0 -2560 0 0
-2560z m1450 796 c172 -56 278 -160 335 -329 31 -92 35 -240 9 -328 -54 -183
-193 -309 -381 -345 -50 -9 -145 -14 -289 -14 l-214 0 0 -295 0 -295 -165 0
-165 0 0 816 0 816 408 -4 c356 -4 414 -7 462 -22z m770 -286 l0 -310 323 2
322 3 3 308 2 307 165 0 165 0 0 -815 0 -815 -165 0 -165 0 0 365 0 365 -325
0 -325 0 0 -365 0 -365 -170 0 -170 0 0 815 0 815 170 0 170 0 0 -310z m1947
291 c78 -21 156 -65 218 -123 107 -99 159 -226 159 -388 0 -235 -118 -406
-334 -481 -59 -21 -87 -23 -317 -27 l-253 -4 0 -294 0 -294 -165 0 -165 0 0
816 0 816 408 -5 c257 -3 423 -8 449 -16z"/>
<path d="M910 2854 l0 -246 213 4 212 3 60 30 c77 38 114 95 122 184 8 84 -11
144 -61 197 -62 64 -108 74 -348 74 l-198 0 0 -246z"/>
<path d="M3630 2854 l0 -246 213 4 c231 4 262 11 320 66 50 47 71 99 71 177 2
124 -63 210 -175 234 -27 6 -135 11 -239 11 l-190 0 0 -246z"/>
</g>
</svg>
